<svg id="Layer_1" data-name="Layer 1" xmlns="http://www.w3.org/2000/svg" viewBox="0 0 216.35 216.46"><defs><style>.cls-1{fill:#f8af20;}</style></defs><path class="cls-1" d="M58.24,230.67c4.4-4.39,8.68-8.91,13.23-13.13,2.57-2.4,3.08-4.74,2-8a116,116,0,0,1-5.38-22.21c-2-14.8,1.32-27.59,12.83-38.09,9.81-8.94,9.44-9.31,13.12,3.61a114,114,0,0,1,4.4,21.64c1,11.83-2,22.14-10,30.9-2,2.2-3.19,4.34-.61,6.87,2.37,2.33,4.63,1.34,6.56-.49,11.46-10.94,25.23-12,39.76-9.11,7.29,1.48,14.42,3.73,21.59,5.74,1.46.41,4.5.78,2.22,3.22-9.59,10.3-19.12,20.66-34.95,20.86a82.09,82.09,0,0,1-28.69-4.87c-6.23-2.23-10.36-1.3-14.83,3.7-7.45,8.32-15.8,15.83-23.55,23.89-2.46,2.56-4,2.49-6.38,0-9.27-9.79-8.93-6.46-.3-15.43C52.17,236.65,55.23,233.69,58.24,230.67Z" transform="translate(-42.65 -40.59)"/><path class="cls-1" d="M186.38,107l-4.45,4.45c-5.66,5.67-5.69,5.68-8.08-2.26-2.94-9.75-5.91-19.48-6-29.83-.13-9.33,2-17.92,8.12-25.07,3.7-4.3,7.89-8.17,11.91-12.18,1.28-1.27,2.9-2.84,3.82.29,3.95,13.4,8.75,26.63,7.11,41A36.58,36.58,0,0,1,186.38,107Z" transform="translate(-42.65 -40.59)"/><path class="cls-1" d="M192.14,114.15c12.68-15.23,29.87-15.4,48-10.8,5.71,1.45,11.78,1.66,17.08,4.8,1.88,1.12,2.46,1.93.83,3.49-5.88,5.62-11,12.09-18.36,16-9.2,4.92-19.06,5.14-29,3.47a181,181,0,0,1-24.18-6.21c-3.1-1-3.42-1.94-1-4.1C187.52,118.91,189.46,116.83,192.14,114.15Z" transform="translate(-42.65 -40.59)"/><path class="cls-1" d="M158.44,147.89c10.18-12.21,23.76-15.09,39.17-12.88,8.49,1.22,16.55,4,24.74,6.28,2.94.83,4,1.74,1.53,4.59-11.76,13.71-25.59,22.24-44.59,19.12-9.3-1.52-18.22-4.36-27.22-7-1.89-.54-2.06-1.71-.66-3.1Z" transform="translate(-42.65 -40.59)"/><path class="cls-1" d="M124.94,181.29c10.13-12.31,24.38-15.24,40.5-12.54,8.08,1.36,15.82,4,23.67,6.14,1.36.38,4.48.8,2.21,3.27-9.31,10.09-18.69,20.14-33.89,20.76-9.17.38-18-1.36-26.73-3.76-3.92-1.08-7.75-2.48-11.69-3.51-2.72-.7-2.72-1.76-.94-3.51C120.1,186.15,122.09,184.13,124.94,181.29Z" transform="translate(-42.65 -40.59)"/><path class="cls-1" d="M152.4,141c-9.55,9.54-9.65,9.57-13.13-2-4-13.14-7-26.37-2.79-40.14C139.6,88.6,148,82.59,155,75.4c2.09-2.15,3.49.61,3.8,1.84,3,11.7,6.87,23.25,6.7,35.59A36.34,36.34,0,0,1,152.4,141Z" transform="translate(-42.65 -40.59)"/><path class="cls-1" d="M113.54,116.73c10.27-10.28,10.31-10.29,13.74,1.9a119.93,119.93,0,0,1,4.42,20.77c1.37,14-2.49,25.72-13,35.48-9.75,9-9.46,9.35-13.16-3.45-1.67-5.8-3.73-11.37-4.25-17.6C100,138.8,102.48,125.48,113.54,116.73Z" transform="translate(-42.65 -40.59)"/><path class="cls-1" d="M243.43,79.73c-8.08,7.59-18.24,10.59-28.67,13-10.11,2.31-10.07,2.3-7.63-8,2-8.32,4.49-16.44,9.08-23.73,6.44-10.24,22.49-17,34.53-14.64,1.56.3,2.63.74,2.69,2.6C253.8,60.38,252.36,71.26,243.43,79.73Z" transform="translate(-42.65 -40.59)"/></svg>