<?xml version="1.0" encoding="utf-8"?>
<!-- Generator: Adobe Illustrator 25.0.1, SVG Export Plug-In . SVG Version: 6.00 Build 0)  -->
<svg version="1.1" id="Layer_1" xmlns="http://www.w3.org/2000/svg" xmlns:xlink="http://www.w3.org/1999/xlink" x="0px" y="0px"
	 viewBox="0 0 500 500" style="enable-background:new 0 0 500 500;" xml:space="preserve">
<style type="text/css">
	.st0{fill:#E20E18;}
	.st1{fill:#020203;}
</style>
<g>
	<path class="st0" d="M259.5,237c1.5,0.3,2.6,0.6,3.8,0.6c7.3,0,14.9,0,22.2,0c6.1,0,12.3-0.3,18.4-0.6c3.2-0.3,6.4-0.6,9.3-1.2
		c6.1-1.2,10.8-4.4,14.3-9.3c4.4-5.8,5.3-8.8,4.4-16.3c-2-2.3-5-3.5-8.2-2.9c-3.8,0.6-7,2.6-9.3,5.5c-3.5,4.1-6.7,8.2-10.5,12
		c-3.8,3.8-7.6,7.6-13.1,8.5c-1.5,0.3-2.9,0.3-4.4,0.3c-3.2,0-6.4,0-10.2,0c-1.5-0.6-2-2.6-1.5-5c0.9-1.8,1.5-3.8,4.1-4.4
		c2.9,0.3,3.8,3.5,6.1,4.4c3.5-0.3,5.8-2,8.2-4.4c2.6-2.9,4.4-6.1,6.4-9.6c1.5-2.9,3.8-5.5,5.3-8.2c2-3.5,4.7-6.7,7-9.9
		c2-2.6,4.7-4.7,7.3-6.7c1.5-1.2,3.2-2.3,5.3-3.2c2.3-1.2,4.7-1.2,7.3-1.8c3.5-0.6,6.4,0,9.6,0.9c3.2,0.6,5.8,2.3,7.9,4.7
		c2.3,2.6,4.4,5.3,5.5,8.5c1.5,3.5,2,7.3,2.6,11.1c0.3,2.3,0.6,5,0.3,7.3c-0.6,4.7-2.9,7.9-6.4,10.5c-2,1.5-4.1,2.9-5.8,4.7
		c-1.2,0.9-2,2-2,4.1c1.5,0.3,3.2,0.6,5,0.9c8.2,0.9,15.5-2,22.2-6.4c1.5-0.9,2.9-1.5,4.7-1.8c1.8-0.3,3.2,0.3,4.1,1.5
		c2,2.6,4.4,5,6.1,7.6c2,2.9,4.7,5.3,7.9,6.7c2.9,1.2,5.5,2.3,8.5,3.5c0.9,0.3,1.5,0.6,2.9,1.2c-2,0.9-3.8,1.5-5.3,2
		c-2,0.9-4.4,1.5-6.4,2.3c-1.2,0.6-2.3,1.8-3.5,2.6c-2.3,1.8-4.4,3.8-5.5,6.4c-0.9,2-5.8,5.8-8.2,7c-2.9-0.6-5.3-2-7.9-3.2
		c-4.1-2-8.2-4.1-12.5-5c-3.8-0.9-8.5-1.2-12.3,1.5c0.3,0.6,0.3,1.5,0.9,2c2,2,4.4,4.1,6.7,5.8c2.9,2,5.5,4.4,6.4,8.2
		c0.6,2.9,1.5,5.8,0.6,9c-0.6,2.6-0.9,5.5-1.5,8.2c-1.2,5.5-4.1,10.2-8.5,14c-2.9,2.3-6.1,4.4-10.2,4.1c-2,0-3.8,0-5.8,0
		c-3.8,0-7.3-1.5-10.5-3.5c-4.7-3.5-9-7.3-12.3-12.3c-3.8-5.8-7.3-11.7-11.1-17.5c-2-2.9-4.4-5.8-7-8.5c-1.5-1.5-3.2-1.8-5.5-1.8
		c-1.5,1.2-2.9,2.6-4.1,3.8c-2.3,0.9-3.5-0.3-5-1.8c-1.5-5.3-1.5-5.3,1.2-7.9c4.4,0.3,8.8,0.3,13.1,0.6c3.8,0.3,6.7,2.9,9.6,5
		c5,3.8,8.2,9,12.3,13.4c2.6,2.9,5.8,5.5,9.6,7.9c2,0,4.7,0,7,0c0.9-0.6,1.8-1.5,2.6-2c0.3-1.2,0.9-2.6,0.9-4.1
		c0.3-5.3-1.5-9.6-4.7-13.4c-0.9-0.9-1.8-1.8-2.3-2.9c-2-2.3-4.7-3.8-7.6-5c-2.6-1.2-5.5-1.8-8.5-2c-6.7-0.9-13.4-0.6-20.4-0.9
		c-8.2-0.3-16.6-0.3-24.8-0.6c-1.5,0-2.6,0-3.8,1.5c-0.3,2.6-0.9,5.5-0.3,8.5c0.6,2.3-0.3,5.3-0.3,7.6c0,8.2,0,16.3,0.6,24.2
		c0.3,4.7,0.9,9.3,2,13.7c1.5,5.5,5,9.6,9.6,12.5c0.9,0.6,1.8,0.9,2.6,1.8c4.4,3.2,8.8,3.5,13.7,1.8c4.1-5,3.2-9,0.6-12.5
		c-2.3-2.9-5.3-5.5-7.9-8.2c-3.8-3.5-7.9-7-11.4-10.5c-3.8-3.8-5.8-8.5-5.5-14c0-2.3,0-4.7,0-7c0-0.9,0-2,0.3-2.9
		c2.3-1.2,4.7-1.2,7.3-0.3c0.6,0.6,1.2,1.2,2,1.8c0,1.2,0,1.8,0,2.9c-1.2,1.2-2.6,2.3-4.1,3.5c0,3.8,1.8,6.4,4.4,8.8
		c5.5,4.7,12.3,7.6,18.1,11.7c6.4,4.4,12.5,8.8,16.9,15.2c3.2,4.7,4.4,9.9,4.1,15.8c-0.6,9.9-6.4,15.2-14.6,18.7
		c-6.1,2.6-12.5,2.9-19,2.6c-2.6-0.3-5-1.8-6.7-3.5c-1.5-1.2-2.6-2.9-3.8-4.4c-1.2-1.5-2-2.6-2.9-4.1c-0.9-1.2-2.3-2.3-4.1-2.3
		c-1.8,0.9-1.8,2.6-1.8,4.1c-0.6,5.5,0,11.1,2.9,16c1.8,3.2,3.2,6.4,5,9.6c1.2,2,0.9,4.1-0.9,5.5c-2,2-4.1,4.1-6.4,5.8
		c-5.3,3.5-8.8,8.5-10.2,14.6c-0.6,1.8-0.6,3.5-1.8,5c-1.2-0.3-1.2-1.5-1.5-2c-1.2-3.5-2-7-4.1-9.9c-1.8-2.6-3.8-4.7-6.1-6.7
		c-2.3-1.8-4.7-3.8-7-5.8c-2-1.8-2.3-4.7-1.2-6.7c1.5-2.6,2.6-5.5,4.4-8.2c3.2-5.5,3.8-11.7,3.2-17.8c0-1.2-0.6-2-0.9-3.2
		c-2-0.3-3.2,0.9-4.4,2.3c-2,2.6-4.4,5.3-6.4,7.9c-2.3,2.9-5.5,4.4-9.6,4.1c-4.4,0-8.8-0.3-13.1-1.5c-5.3-1.5-9.9-3.8-13.7-7.9
		c-2.9-2.9-4.1-6.4-4.7-10.5c-0.6-3.5-0.6-7,0.6-10.2c0.9-2.6,2.3-5,3.5-7.3c3.8-6.1,9.3-9.9,14.9-13.7c5-3.2,10.2-6.1,15.5-9.3
		c0.9-0.6,1.8-1.2,2.3-1.8c0.6-0.6,1.2-1.2,1.8-1.8c3.8-3.2,3.8-3.2,5-8.2c-1.5-1.8-3.2-3.8-4.7-5.5c3.2-4.7,4.7-5.3,9.6-3.2
		c0,0.3,0.3,0.3,0.3,0.6c0.3,5.3,0.3,10.5-0.9,15.5c-0.9,3.5-2.6,6.4-5,8.8c-3.2,3.2-6.4,5.8-9.9,8.8c-2.9,2.9-6.1,5.5-8.8,8.8
		s-3.5,6.7-2,10.8c0.6,1.8,1.8,2.6,3.5,3.2c3.5,0.9,7,0.6,10.2-1.2c1.2-0.6,2.3-1.5,3.5-2c7-4.7,11.1-10.8,11.7-19.5
		c0.9-14.9,1.2-29.8,1.2-44.9c0-1.2,0.3-2.6-0.9-4.1c-0.9,0-1.8,0-2.6,0c-11.7,0-23.6,0-35.3,0.3c-4.7,0-9.3,0.6-14,1.5
		c-5.3,0.9-9.6,3.5-13.1,7.6c-1.8,2-3.5,4.1-4.7,6.7c-1.5,2.9-1.8,6.1-1.5,9.3c0.3,2.9,2.3,4.7,5,5c3.8,0.3,7-0.6,9.6-2.9
		c4.7-4.1,8.5-9,12.5-13.7c3.8-4.1,7.6-7.9,12.8-9.3c1.2-0.3,2.3-0.6,3.2-0.6c3.2-0.3,6.4-0.6,9.3-0.6c1.2,0,2.3,0.3,3.5,0.6
		c0.3,1.5,0.6,2.3,1.2,3.5c-0.3,1.2-0.6,2.3-0.9,3.5c-1.2,1.5-2.3,2.6-5,2.3c-0.6-0.6-1.5-1.5-2-2.3c-1.5-2-3.2-2.3-5.3-1.5
		c-2.6,1.2-5,2.9-6.4,5.3c-2.3,3.5-4.7,7-6.7,10.5c-3.5,6.1-7.3,12-12,17.2c-3.8,4.1-8.2,7.6-13.4,9.3c-2,0.6-4.4,0.6-6.7,0.9
		c-10.8,1.2-19.5-7.9-21.9-15.8c-1.5-4.4-1.8-8.5-2.3-12.8c-0.6-2.9,0.3-6.1,1.5-9c0.6-1.8,2-3.2,3.8-4.4c2-1.5,4.1-2.9,6.1-4.7
		c1.5-1.2,3.2-2.3,3.5-4.7c-2.9-1.5-6.1-2.3-9.6-1.8c-6.1,0.6-11.4,3.8-16.6,6.1c-2.3,1.2-4.7,2-6.7,2.9c-3.2-1.8-5.8-4.4-7.6-7.3
		c-2.6-3.8-5.5-7-9.6-9c-2.6-1.2-5.5-2-8.2-2.9c-0.9-0.3-1.8-0.6-3.2-1.2c2.3-1.2,4.1-2,6.1-2.6c6.1-1.5,10.8-5,14.3-9.9
		c1.8-2.3,3.5-4.4,5.5-6.7c0.9-0.3,1.8-0.9,2.6-1.5c4.4,0.3,7.6,2.9,10.8,4.7c6.1,3.5,12.5,4.4,19.3,3.8c1.2,0,2-0.6,3.2-1.2
		c0-1.8-0.6-2.9-2-3.8c-2.9-2.3-6.1-4.7-9-7.3c-2-1.8-2.9-4.1-3.5-6.7c-1.2-6.7,0.3-12.8,2.3-19c0.6-2,1.8-4.1,3.2-5.8
		c1.5-2,2.9-4.1,4.7-5.3c2-1.5,4.7-2.9,7.3-3.2c2.9-0.6,5.8-0.6,8.8-0.3c5.3,0.6,9.3,2.6,13.4,5.8c3.8,2.9,6.7,6.7,9.6,10.5
		c2,2.6,3.8,5.5,5.5,8.5c2.3,3.5,4.4,7.3,6.7,10.5c1.2,1.8,2.9,3.5,4.4,5.3c1.2,1.2,2.6,2,4.4,2.6c2.6,0.6,2.9,0.6,4.7-1.5
		c0-0.3,0.3-0.3,0.3-0.6s0.3-0.3,0.6-0.6c0.6-0.3,1.2-0.6,1.8-0.9c0.3,0,0.6,0,1.2-0.3c2,0.6,3.5,1.5,3.8,4.1c0.3,2,0.3,4.1-1.5,5.3
		c-4.7,0-8.8,0-13.1-0.3c-3.8-0.3-7.3-2-10.2-5c-3.5-3.8-7-7.3-10.5-11.1c-2.9-3.2-5.5-6.7-9.3-8.8c-2.9-1.5-5.5-2.3-8.8-1.2
		c-2.6,0.9-3.5,1.8-4.1,4.4c-0.6,3.8,0,7.6,2,11.1c4.1,6.7,9.6,11.7,17.2,13.1c3.5,0.6,7.3,0.9,10.8,0.9c12.5,0.3,25.4,0.3,37.9,0.6
		c1.2,0,2.3,0,3.5,0c0.3-0.9,0.6-1.8,0.6-2.6c0-7.6,0-15.5,0-23c0-5.5-0.3-11.1-0.6-16.6c-0.3-3.8-0.9-7.3-1.2-11.1
		c-0.3-4.4-2.9-7.6-5.5-10.5c-2.3-2.9-5.3-5-8.5-6.4c-2.6-1.2-5-1.8-7.9-1.8c-5.3,0-7,2.9-6.7,7.9c0,2.3,0.9,4.4,2.3,6.1
		c2.3,2.3,4.4,4.7,6.7,7c3.2,2.9,6.7,5.5,9.6,8.5c3.2,3.2,6.1,6.7,7.3,11.4c0.3,1.2,0.6,2.3,0.6,3.2c0,3.5,0,7.3,0.3,10.8
		c0,0.6-0.3,1.2-0.3,1.8c-2,1.2-4.4,0.9-7.3,0.6c-0.6-0.6-1.2-1.5-2-2.3c0-1.2,0-2,0-3.2c1.2-0.9,2.3-2,3.8-3.2
		c0.6-3.2-1.5-7.6-4.4-9c-0.3-0.3-0.9-0.3-1.2-0.6c-5.8-5.3-13.1-8.2-19.3-12.5c-4.1-2.9-8.2-5.5-11.4-9.3
		c-2.9-3.2-5.3-6.7-6.7-10.8c-2-6.4-1.5-12.8,2-18.4c2-3.2,5.3-6.1,8.8-7.9c4.7-2.3,9.6-3.5,14.6-3.5c1.8,0,3.5,0.3,5,0
		c4.4-0.6,7.6,1.8,10.5,4.7c2.3,2.3,4.1,5.3,6.1,7.9c0.9,0.3,2,0.9,3.2,1.5c1.2-1.5,1.5-2.9,1.8-4.7c0.6-6.1-0.6-12-3.5-17.2
		c-1.2-2-2.3-4.1-3.5-6.1c-2-3.5-1.8-5.8,1.2-8.8c1.8-1.8,3.8-3.5,6.1-5c4.7-3.2,7.6-7.6,9.3-12.8c0.9-2.3,1.5-4.7,2.6-7.3
		c1.2,3.2,2,5.8,2.6,8.5c1.2,3.8,3.8,7,6.1,9.9c0.3,0.3,0.9,0.9,1.2,1.2c4.1,2,7.3,5.3,9.9,9.3c0.3,3.2-1.8,5.5-2.9,8.2
		c-1.8,4.1-3.8,7.9-5.3,12c-0.6,1.8-0.3,3.8-0.3,5.8c0,1.5,0,2.6,0,4.1c0.6,1.2,1.5,2.3,2.3,3.5c1.2-0.9,2.3-1.5,2.9-2
		c1.8-2,3.5-3.8,5-6.1c1.2-2,2.9-3.5,4.7-4.7c1.5-0.9,2.9-1.5,4.7-1.5c2,0,4.1,0,6.1,0c5.3-0.3,10.2,1.2,14.6,3.2
		c5.8,2.9,10.8,7.3,12.3,14c1.2,6.1,0.9,12.3-2.6,18.1c-3.5,5.8-8.5,10.2-14,14c-3.5,2.6-7.6,4.7-11.1,7c-3.8,2.3-7.6,5-11.4,7.6
		c-2.9,2-4.1,5-4.1,8.5c1.5,1.5,2.6,2.9,3.8,4.1c0.9,2.9-1.2,4.1-2.9,5c-2,0-4.1,0-6.1,0c0-1.5-0.3-2.3-0.3-3.5c0-2.3,0.3-4.7,0-7
		c-0.3-5.3,1.5-9.6,5-13.4c2.3-2.6,4.7-4.7,7.3-7c2.6-2.3,5.3-4.4,7.6-6.4c2-1.8,3.8-3.8,5.3-6.1c2-3.2,2.3-6.7,0.9-10.2
		c-0.6-1.2-1.8-1.8-2.3-2.3c-5.8-1.5-10.2,0.6-14.6,2.6c0,0-0.3,0-0.3,0.3c-3.8,3.5-7.6,6.7-9.6,11.7c-1.5,3.2-1.5,6.7-1.8,10.2
		c-0.9,7.3-0.9,14.3-0.9,21.6c0,7.6-0.3,15.2-0.3,22.8C259.5,235.2,259.5,235.8,259.5,237z"/>
	<path class="st1" d="M70.8,247.5c5-4.1,9.6-8.2,14.3-12.3c0.3,2,0,4.1,0,6.1c-0.9,2.3-3.2,3.5-4.7,5c-1.8,1.5-3.2,2.9-5,4.4
		c1.8,1.8,3.2,3.2,5,4.4c1.5,1.5,3.2,2.9,5,4.1c0,2.3,0,4.4,0,6.7c-4.7-4.1-9.6-7.9-14.3-12c-1.5,1.2-2.9,2-4.4,2.9
		c-7,4.1-14,8.2-22.2,10.2c-2.6,0.6-5,1.2-7.6,1.2c-5,0.3-9.9,0.3-14.9-1.2c-4.4-1.5-8.2-3.5-11.7-6.4c-2.9-2.3-5.5-5-7.3-8.2
		c-0.3-0.6-0.6-1.5-0.9-1.8c2.9-5.8,7.6-9.3,12.3-12.8c3.2-2.3,7-3.2,11.1-4.1c4.1-0.9,8.2-0.6,12.5-0.3c5.8,0.6,11.4,2,16.3,4.7
		C60,240.5,65.8,242.8,70.8,247.5z M64.9,250.7c-0.3-0.6-0.3-0.9-0.6-0.9c-9-5.8-18.4-10.5-29.2-12c-4.1-0.6-7.9-0.3-11.7,0.9
		c-6.7,1.8-11.7,5.8-15.8,11.4c0.9,1.2,1.5,2.9,2.6,3.8c2,1.8,4.1,3.5,6.4,5c7.6,5.3,16,5.3,24.5,3.2c6.4-1.5,12.3-4.4,18.1-7.6
		C61.4,253.6,63.2,252.2,64.9,250.7z"/>
	<path class="st1" d="M413.9,250.4c0.9-1.2,1.8-2,2.3-2.9c2.9-4.4,6.7-7.6,11.1-10.2c2.9-1.8,6.7-2.9,10.2-3.8
		c2.9-0.6,5.8-0.9,8.8-0.9c8.5,0.6,16.3,2.3,23.6,6.7c2.6,1.5,5.3,2.6,7.9,4.1c1.8,1.2,3.5,2.3,5.5,3.5c4.7-3.8,9.3-7.9,14.3-12
		c0.3,2.3,0.3,4.4,0,6.7c-3.2,2.9-6.7,5.8-9.9,8.8c3.5,2.9,6.4,5.5,9.9,8.5c0,2,0,4.4,0,6.7c-5-4.1-9.6-7.9-14.3-12
		c-0.6,0.3-0.9,0.3-1.5,0.6c-5,4.1-10.8,6.4-16.6,9.3c-6.7,3.2-14,4.7-21.6,4.4c-5.8,0-11.1-1.5-16-4.4c-4.1-2.3-7.9-5.5-10.8-9.6
		C415.9,253,415,251.9,413.9,250.4z M478,250.7c-0.9-0.9-1.5-1.5-2-2c-5.3-3.2-10.5-6.1-16.3-7.9c-3.8-1.2-7.9-2.3-12.3-2.9
		c-4.4-0.3-8.5,0-12.3,1.2c-4.4,1.2-8.2,4.1-11.4,7c-1.5,1.2-2.6,2.6-3.2,4.7c0.9,1.2,1.8,2.3,2.6,3.5c4.7,4.7,10.2,8.2,17.2,8.8
		c4.7,0.6,9.3,0.3,13.7-0.9c3.8-0.9,7.6-2.3,11.4-4.1C469.6,256,474,253.9,478,250.7z"/>
	<path class="st1" d="M40.4,206.4c2,0,3.5,0,5.3,0c0,5.8,0,11.7,0,17.8c1.2,0.3,1.8,0.3,2.6,0.3c5.5,0,11.1,0,16.6,0
		c1.2,0,2.3,0,3.5,0c0,1.8,0,3.5,0,5.3c-7.3,0-14.9,0-22.5,0c-0.3,0.9-0.6,1.5-0.9,2c-3.8,0.3-3.8,0.3-5.8-2c-7.3,0-14.6,0-22.2,0
		c0-1.8,0-3.5,0-5.3c7.6,0,15.2,0,22.8,0C40.4,218.3,40.4,212.5,40.4,206.4z"/>
	<path class="st1" d="M452.9,223.6c0-5.8-0.3-11.4,0-17.2c1.8,0,3.2,0,5,0c0.3,2.6,0,5.5,0,8.5c0,2.9,0,5.8,0,9
		c0.9,0.3,1.8,0.3,2.6,0.3c5.5,0,11.1,0,16.6,0c1.2,0,2.3,0,3.5,0c0.9,1.8,0.6,3.5,0.3,5.5c-7.6,0-15.2,0-22.8,0
		c-0.3,0.6-0.3,1.5-0.6,2c-1.2,0-2.6,0-3.8-0.3c-0.3-0.6-0.9-1.2-1.2-2c-7.3,0-14.9,0-22.5,0c0-1.8,0-3.5,0-5.3c1.2,0,2.3,0,3.2,0
		c5.5,0,11.1,0,16.6,0C450.9,224.4,452.4,224.7,452.9,223.6z"/>
	<path class="st1" d="M430.2,127.6c2.6-2.6,5-5,7-7c0.9-0.9,1.8-1.8,2.6-2.6c1.5-1.5,2.6-3.2,4.4-4.4c1.5-1.2,2-2.3,2-4.7
		c1.8,2.9,3.2,5,4.7,7.3l-0.3,0.3c-0.3-0.3-0.6-0.3-0.9-0.6c-0.3-0.3-0.6-0.3-0.6-0.3c-3.5,3.2-6.7,6.4-9.9,9.6
		c-0.3,0.3,0,0.6,0,1.2c2.9-0.3,6.1-0.9,9-1.2c2.9-0.3,5.5-0.9,9-1.2c-3.2,5.8-7.6,10.2-10.5,16c1.2,0,1.5,0,2-0.3
		c3.5-1.2,7-2.3,10.5-3.5c0.9-0.3,1.8-0.9,2.9-1.2c-0.3-0.9-0.3-1.5-0.3-2c0,0,0.3,0,0.3-0.3c0.9,1.5,2,2.9,2.9,4.7l-0.3,0.3
		c-0.6-0.3-1.2-0.6-2-1.2c-6.7,2-13.7,4.4-20.7,6.7c-0.3-0.6-0.9-1.5-1.5-2c2.6-5.3,7.3-9.3,9.6-14.9c-1.2,0-1.8,0-2.3,0
		c-4.7,0.9-9.6,1.5-14.3,2.3C432.2,128.5,431.7,128.2,430.2,127.6z"/>
	<path class="st1" d="M456.2,326.6c0,0.6,0,1.2,0,2c5.3,4.7,10.8,9.3,16.6,14.3c-0.3,0.6-0.6,1.2-0.9,2.3
		c-5.8-0.3-11.7-0.3-17.8-0.6c3.2,5.5,8.2,9.3,11.7,14.6c0,0.3-0.3,0.9-0.6,1.2c-0.3,0-0.6,0.3-0.6,0.3c-4.1-0.9-8.5-1.8-12.5-2.6
		c-1.8-0.3-3.5-0.6-5.3-1.2c-1.8-0.6-3.5-0.3-5.3,0.6c1.2-2.3,2.3-4.7,3.5-7c0.6,0.6,0.9,1.2,1.5,1.8c4.4,0.9,8.8,2.6,13.4,2.9
		c0-2.6-2-3.5-3.2-5.3s-2.3-3.2-3.8-5c-1.2-1.5-3.2-2.6-4.1-5c6.4-0.3,12.3,1.5,18.7,0.3c-0.6-0.9-1.2-1.5-1.8-2
		c-2.6-2-5-4.1-7.6-6.1c-1.2-0.9-2.3-1.8-4.1-1.5l0,0C454.1,328.9,454.4,327.4,456.2,326.6L456.2,326.6z"/>
	<path class="st1" d="M469.6,154.1c0.3-1.2,0.3-2,0.3-2.9c0.3,0.3,0.3,0.6,0.6,0.9c1.5,3.5,2.9,7,4.4,10.2c2,5,1.2,7-4.4,8.5
		c-1.5-0.9-3.2-2-5.3-3.2c-2,4.1-5.8,7.3-7.6,12.3c-1.2-1.5-1.8-3.2-2.3-5.3c2.6-3.8,5.3-7.3,7.9-11.1c4.1,4.4,6.7,4.4,9.9,0
		c0-1.8-0.3-3.5-1.8-5.3c-5.8,2.3-12.3,3.8-17.8,7.3c0,0.6-0.3,1.2-0.3,2.3c-1.5-2.9-2.6-5.5-3.8-8.2l0.3-0.3
		c0.3,0.6,0.9,0.9,1.5,1.5c0.6,0,1.5,0,2,0C458.5,158.8,464,156.5,469.6,154.1z"/>
	<path class="st1" d="M442.4,394.5c-0.9,1.5-1.8,3.2-2.6,4.7c-4.7-0.6-9-0.9-13.4-1.5c0.6-3.2,1.2-6.4-2.3-8.8c-1.2,0-2.3,0-3.8,0
		c-0.9,1.2-1.8,2.3-2.6,3.5c1.5,2.3,3.5,4.1,5.5,5.5c2.3,2,5,3.8,7.6,5.8c1.2,0.9,2.3,1.5,3.8,1.5l0,0c-0.9,2-2,3.5-4.1,4.7l0,0
		c-0.3-0.6-0.6-1.5-0.9-1.8c-3.2-2.6-6.4-5.3-9.9-7.9c-1.5-1.2-3.2-2.3-5-3.5c-0.9,0.3-1.5,0.3-2,0.6c0-0.3-0.3-0.6,0-0.6
		c0.6-0.9,1.2-1.8,2-2.6c1.5-1.8,2.9-3.5,4.1-5.3s2.6-3.2,5-3.8c4.7,0.9,5.8,2.9,4.7,8.5C433.1,395.1,437.8,394.8,442.4,394.5
		L442.4,394.5z"/>
	<path class="st1" d="M23.2,159.7c0-4.7,1.5-8.5,4.1-11.1c2.6-2.9,6.4-5,11.4-2.3c2.6,1.5,5.3,2.9,7,5.5c1.2,2,1.8,4.1,1.5,6.1
		c-0.6,4.4-2.6,8.2-6.1,11.1c-2.3,2-5,2.3-7.6,1.8c-2.9-0.6-5.8-2-7.9-4.4C23.8,164.3,22.9,162,23.2,159.7z M37.5,166.4
		c0.6,0,1.5,0,2,0c4.7-0.9,7.3-7,4.7-10.8c-3.5-4.7-8.5-6.4-14-5.5c-0.9,0-1.5,0.6-2,0.9c-4.1,2.9-4.1,9.9,0,12.5
		C30.8,164.9,34,166.4,37.5,166.4z"/>
	<path class="st1" d="M201.2,33.1c0.9,0.3,1.5,0.3,2,0.6c-2.9,0.6-5.8,1.2-9,1.8c0.9-0.6,1.2-1.2,2-1.8c-0.3-6.7-1.5-13.4-3.5-19.5
		c-0.9-0.3-1.5-0.6-2-0.9c4.1-0.9,8.2-1.8,12.3-2.3c1.8-0.3,3.8-0.6,5.5,1.2c2.6,4.1,0,6.7-2.9,9.3c3.2,3.2,6.1,6.7,9.3,9.9
		c-1.2,1.2-2.9,0.6-4.7,0.9c-1.5-1.8-3.2-3.2-4.7-5c-1.5-1.5-2.9-3.2-4.4-5c0.9-0.3,1.5-0.6,2-0.9c2-1.5,2.9-3.5,2-5.5
		c-0.9-2.3-1.8-2.9-4.7-2.9c-0.9,0-1.5,0.3-2.6,0.3C198.8,20.2,198.8,26.9,201.2,33.1z"/>
	<path class="st1" d="M214.9,479.1c2,4.4,3.8,8.5,5.8,12.5c-1.8-0.3-3.2-0.6-5.3-1.2c-1.8-4.1-3.5-7.9-5.3-12.3
		c3.8-0.3,6.4-1.5,6.7-6.1c0-0.3-0.6-1.5-0.9-2.6c-1.5-0.6-3.2-1.2-5-2c-2,2.9-4.4,14.9-4.1,20.4c0.3,0.3,0.9,0.3,1.5,0.6
		c0,0.9-6.1,0-9-1.2c1.2-0.3,2-0.3,2.9-0.6c1.8-6.1,2.3-12.5,3.2-19.3c-0.6-0.6-1.2-0.9-2-1.8c5.5,0.9,10.5,1.2,15.8,3.2
		c0.6,0.9,1.2,1.8,2,2.6C220.4,476.2,220.4,476.2,214.9,479.1z"/>
	<path class="st1" d="M98.8,82.4c0,5.5-4.4,11.4-9.6,12.8c-4.4,1.5-9.3-0.3-12.3-4.1c-3.2-4.4-3.5-9.3-0.6-13.1c1.5-2,3.2-3.8,5-5.5
		c3.2-2.6,10.2-2.6,13.4,1.2C97,76.2,99.3,78.6,98.8,82.4z M96.7,85.3c-0.3-1.2-0.6-2.6-1.2-3.5c-2-3.2-4.4-5.8-7.9-7.6
		c-2.9-1.5-5.8-0.9-8.2,1.8c-2,2-3.2,5-2,7.9c1.8,4.1,4.7,7.3,9,8.8C91.8,94,96.7,89.7,96.7,85.3z"/>
	<path class="st1" d="M242.6,18.2c0.6,6.4-4.7,11.7-10.8,11.7c-1.5,0-2.9,0-4.4,0c-5-0.3-7.6-2.3-8.8-7.3c-0.9-3.2-0.9-6.7,0.6-9.9
		c1.2-2,2.6-3.8,5-4.4c3.8-1.5,7.6-2,11.4-0.9c4.4,1.5,7,4.7,7,9C242.6,17.3,242.6,17.9,242.6,18.2z M234.1,9.1
		c-0.9-0.3-1.8-0.6-2.6-0.9c-3.5-0.6-7.3,1.2-8.8,4.4c-2,5.3,0,12.3,4.7,15.8c6.1,0.9,6.7,0.6,9.9-3.5
		C239.4,19.3,238.5,14.1,234.1,9.1z"/>
	<path class="st1" d="M76.9,396.6c-3.2,6.4-9.9,8.8-14.6,7.3c-6.7-2-11.1-8.8-9.3-16.6c0.9-0.9,1.8-2.3,2.6-3.5
		c2.6-3.2,6.1-4.4,10.2-4.1c2,0,3.8,0.9,5.3,2.3c0.9,0.9,1.8,1.8,2.6,2.6c2.9,2.9,4.1,6.4,3.8,10.5C77.2,395.4,77.2,396,76.9,396.6z
		 M67,382.6c-3.5,0.6-6.7,2.9-9,5.5c-0.9,0.9-1.8,2.3-2,3.8c-0.9,2.9-0.3,5.8,2,7.9c2,2,4.7,2.3,7.6,1.5c3.5-1.2,6.1-3.8,8.2-6.7
		c2-2.9,1.8-6.1-0.9-8.8C71,384,69.6,382.9,67,382.6z"/>
	<path class="st1" d="M117.4,428.7c2,1.2,4.4,2.3,6.4,3.5c1.2,0.9,2.3,1.8,3.5,2.6c1.5,0.9,2.3,2,2.9,3.8c-0.3,2.3-1.5,4.1-3.8,5.3
		c-1.5,0-3.2,0-5,0.3c0,5-0.6,9.3,1.2,14.6c-1.8-1.2-3.2-2-4.7-3.2c0-4.4,0-8.8,0-13.7c2,0.9,4.1,1.2,5.8-0.3c0.9-0.9,1.5-2,1.8-3.2
		c0.9-2.6-0.6-4.1-4.4-5.5c-1.2,1.8-2.3,4.1-4.1,5.8c-2.3,2.3-3.8,5.3-5.3,8.2c-0.6,1.2-1.2,2.3-0.9,3.8l0,0c-2.3-1.2-4.7-2.6-7-3.8
		c0-0.3,0.3-0.3,0.3-0.6c0.6,0,0.9,0.3,1.5,0.3c2-1.5,3.5-3.5,5-5.8c1.8-2.6,3.2-5.3,5-7.9C116.6,431.3,117.4,430.1,117.4,428.7
		L117.4,428.7z"/>
	<path class="st1" d="M324.6,36c0.3-1.8,0.6-3.2,1.2-5c1.8-5.3,7.6-8.2,13.1-6.7c2,0.6,4.1,1.5,5.8,2.3c4.4,1.8,5.8,6.1,5.3,10.2
		c-0.6,4.4-2.9,7.9-7,9.6c-2.3,1.2-4.7,1.5-7.3,0.6c-2.9-0.9-5.8-2-8.2-4.1C325.5,41.5,324.6,38.9,324.6,36z M329,38
		c0,0.6,0,0.9,0,1.5c0,3.2,2.3,5,5,6.1c2.6,1.2,4.7,0.9,7-0.9c3.5-3.2,5.3-7.3,5.3-12c0-2.9-2.6-5.8-5.5-6.4
		c-2.9-0.6-5.8-0.3-7.9,2.3C330.4,31.3,329,34.5,329,38z"/>
	<path class="st1" d="M271.2,29.8c-2.3-0.3-4.7-0.3-6.7-0.6c-2.9-3.8-6.1-7.3-9.3-11.1c-0.6,0.6-0.9,0.9-0.9,1.2c0,2.9,0,5.5,0,8.5
		c0.9,0.3,1.5,0.6,2.6,1.2c-3.2,0-6.4,0-9.6,0c0.9-0.3,1.5-0.6,2-0.9c1.8-6.4,0.6-13.1,0.9-19.8c-0.9-0.6-1.8-0.9-2.6-1.5
		c3.2,0,6.1,0,9,0c-0.6,0.6-1.2,0.9-2,1.5c0.6,2.9-1.5,6.1,0,9.6c4.1-3.5,7.9-6.7,10.8-11.1c1.5,0,2.9,0,4.7,0c0,0.3,0,0.6,0,0.6
		c-2.9,0.6-5,2.6-7,4.7c-1.2,1.2-2.6,2.6-4.1,3.8C262.7,20.8,265.9,25.8,271.2,29.8z"/>
	<path class="st1" d="M39,177.5c-0.6,1.8-0.9,3.5-1.5,5c-4.1,2.9-9.3,3.2-13.7,7c3.5,1.8,6.7,2,9.6,2.9c0.6-0.9,0.9-1.5,1.2-2
		c0.3,0.3,0.6,0.3,0.6,0.3c-0.9,2.9-1.8,5.8-2.9,8.5c0-0.9-0.3-1.8-0.3-2.3c-0.3-0.3-0.3-0.3-0.6-0.6c-5.5-1.8-10.8-3.2-16.3-5
		c-1.2-0.3-2.3,0-3.5,0.6l0,0c0.6-2.6,1.2-5.3,1.5-8.2c0.3,0,0.3,0,0.6,0c0,0.3,0,0.6,0,0.9c0,0.3,0,0.6,0.3,1.2
		c2.6,0.9,5.5,2,8.5,2.9c0.3,0,0.9-0.3,1.2-0.3c-0.6-2-5-9.9-7.3-13.4c0.3-1.2,0.6-2.6,1.2-4.4c0.9,4.7,3.2,8.8,5.3,13.1
		C28.7,183,33.7,179.5,39,177.5L39,177.5z"/>
	<path class="st1" d="M307.9,462.8c2.3-0.9,4.7-2,7.6-3.2c-0.9,1.2-1.5,1.8-1.8,2.3c0.6,3.8,1.5,6.7,2.9,9c2.3-1.8,2.6-4.4,3.8-6.4
		c1.5-2,2.3-4.7,3.5-7.3c1.2-0.3,2.3-0.9,4.4-1.5c-4.1,3.8-6.4,7.9-7.9,12.5c5,2.9,9.9,5.5,14.9,8.5c-1.5,0.9-3.2,1.5-5.3,1.8
		c-4.1-2.3-7.9-5.3-12.5-7c-0.3,0.6-0.6,0.9-0.6,1.2c0.9,2.6,2,5.5,2.9,8.2c1.2,0,1.8-0.3,2.6-0.3c0,0.3,0,0.6,0,0.6
		c-2.6,0.9-5.3,1.8-8.2,2.6c0.6-0.9,0.9-1.5,1.2-2.3c-0.6-2-1.2-3.8-2-5.8c-0.9-3.2-1.8-6.1-2.9-9.3
		C310,464.8,309.4,463.4,307.9,462.8L307.9,462.8z"/>
	<path class="st1" d="M34.3,365.4c2-0.9,4.4-1.5,6.1-2.3c4.1-2.3,7.9-4.7,12-7c0-0.9,0.3-1.5,0.6-2.3c1.5,2.6,2.9,5,4.4,7.3
		l-0.3,0.3c-0.6-0.3-0.9-0.9-1.5-1.5c-3.2,0.6-5.8,2.3-8.5,4.7c2.3,1.8,5,2,7.3,2.6c2.6,0.6,5,1.5,7.9,2.3c0.3,0.9,0.9,2,1.8,2.9
		c-2-1.5-4.1-2.3-6.1-2.9c-2.3-0.6-4.4-1.5-6.7-2.3c-2,5.5-4.1,10.8-6.1,16l0,0c-0.9-1.2-2-2.3-2.9-3.5c1.2-5.3,4.1-9.3,5-14.6
		c-3.8,0-8.2,3.2-9.3,6.7C36.3,369.4,35.2,367.4,34.3,365.4L34.3,365.4z"/>
	<path class="st1" d="M417.9,76.8c-0.9,0-1.8,0-2.3,0.3c-2.3,1.8-4.4,3.5-6.1,6.1c5.3,1.5,10.2,1.2,14.9,0.6
		c1.2,1.2,2.3,2.3,3.5,3.5c-2.3-1.8-5-1.5-7.6-1.5c-2,0-4.1-0.3-6.1-0.3c-0.6,5.8-1.8,11.7-1.5,17.2c-1.2-0.9-2.6-2.3-3.8-3.5
		c0.3-4.4,0.9-8.8,1.2-12.8c0-0.6-0.3-1.2-0.3-1.5c-3.5,0.6-6.7,4.4-7.3,7.6l0,0c-1.8-1.8-3.5-3.5-5.5-5.5l0,0c3.2,0.6,5-1.5,7-3.5
		c2-1.8,4.1-3.8,6.1-5.8c1.2-1.5,2.3-2.9,3.5-4.1c-0.6-0.9-0.9-1.5-1.2-2C413,70.7,416.8,74.5,417.9,76.8L417.9,76.8z"/>
	<path class="st1" d="M261.6,478.8c4.4,4.4,8.2,8.2,12.3,12.3c-1.8,0.3-3.2,0.6-4.7,0.6c-3.8-3.5-7.6-6.7-11.1-10.2
		c0,0-0.3,0-0.9,0.3c1.2,3.2-0.6,6.7,1.5,9.6c0.6,0.3,1.5,0.3,2.9,0.6c-3.5,0.3-6.4,0.6-9.3,0.9v-0.3c0.6-0.3,0.9-0.6,1.5-0.9
		c0.6-7-0.3-13.7-1.2-20.4c-1.2-0.3-1.8-0.3-2.9-0.6c3.2-0.3,6.1-0.6,9.6-0.9c-0.9,0.6-1.5,0.9-2,1.5c0,3.2,0,6.1,0,9.6
		c3.2-0.6,4.1-3.5,5.8-5.3c1.8-1.8,3.2-4.1,5-6.1c0.9,0,1.8,0,2.9,0C267.7,472.4,264.8,475.6,261.6,478.8z"/>
	<path class="st1" d="M71.6,417c-1.5-0.9-2.6-1.8-4.1-2.6c0-0.3,0.3-0.3,0.3-0.6c0.9,0.3,1.8,0.6,2.6,0.6c4.7-4.4,9-9,13.4-13.7
		c-0.3-0.9-0.6-1.8-0.9-3.2c1.5,1.8,2.6,3.2,4.4,5c0,6.4-1.5,13.7-0.6,21.3c2.6-1.2,3.8-3.8,5.5-5.3c1.8-1.8,3.5-3.5,5-5.3
		c-0.3-1.2-0.3-1.8-0.3-2.3l0,0c1.5,1.2,2.6,2.3,4.1,3.5c0,0,0,0.3-0.3,0.3c-0.6-0.3-1.2-0.3-2-0.6c-2.6,2-5.3,5-7.6,7.3
		c-2.6,2.6-5,5.3-7.6,7.9c-1.2-1.2-1.5-2.3-1.2-4.1c0.3-2,0-4.1,0.3-6.1c0.3-3.5,0.6-6.7,0.6-10.2c0-1.5,0.3-2.9-0.3-4.4
		c-0.3,0-0.9,0-0.9,0.3c-3.2,3.5-6.7,7-9.9,10.5C71.9,416.1,71.9,416.7,71.6,417L71.6,417z"/>
	<path class="st1" d="M458.8,184.5c2.9,0.3,5.8-0.6,8.5-1.5c4.1-1.2,7.9-2.3,11.7-4.1c0-0.6,0-1.2,0-1.8c0.3,0,0.6,0.3,0.6,0.3
		c0.9,2.3,1.2,4.7,2.3,7c1.2,2.6,1.5,5.3,1.2,8.2c-2,2.6-4.4,3.5-7,2.3c-1.5-0.6-2.6-1.8-3.8-2.9c-0.9-1.2-1.5-2.6-0.9-4.4
		c0.6,0.9,1.2,2,2,2.6c0.6,0.6,1.8,0.9,2.3,1.5c2.3-0.3,4.1-0.9,5.3-2.9c0.6-1.5,0.6-3.2-1.2-5c-6.1,1.8-12.5,2.9-18.7,5.3
		c0,0.9,0,1.8,0,2.6C460.5,191.8,459.4,187.7,458.8,184.5L458.8,184.5z"/>
	<path class="st1" d="M30.2,357.8c-0.6-0.6-1.2-1.2-1.5-1.8c-0.9-1.8-1.8-3.8-2.3-6.1c0.6,0.6,1.2,0.9,2,1.8
		c1.5-1.2,2.9-2.3,4.4-3.8c-1.2-2.9-2.6-5.5-3.8-8.5c-1.8,0-3.5,0-5.5,0c-0.3,1.2-0.6,2-0.9,3.2c-0.9-2-1.8-3.8-3.2-6.4
		c1.5,0.9,2,1.2,3.2,2c3.5-0.3,7.3-0.6,11.1-0.9c3.8,0,7.6,0,11.1,0c1.2,1.2,0.9,2,0,2.9c-2.3,2.6-4.7,5.3-7,7.9
		c-2.3,2.6-4.7,5.3-7,7.9C30.5,356.6,30.5,357.5,30.2,357.8L30.2,357.8z M40.1,339.7c-5.3-0.9-7.3-0.6-9,0.9
		c0.9,1.8,1.8,3.5,2.9,5.3c1.2-1.2,2.3-2,3.2-2.9C38.1,342,39,341.1,40.1,339.7z"/>
	<path class="st1" d="M172.3,18.5c1.2,0,1.8,0,2.3,0c3.8,4.4,7.6,8.8,11.1,13.4c1.5,2,3.2,3.8,5.8,4.4c-2.9,0.9-5.8,1.8-9,2.6
		c0.6-0.9,0.9-1.2,1.5-2c-0.9-1.5-2-2.9-3.2-4.7c-2.9,0.9-5.5,2-8.2,2.9c-0.9,3.5-0.9,3.5,0,5.8c0.6,0.3,1.5,0.3,2.9,0.6
		c-2.6,0.9-4.7,1.5-6.7,2l-0.3-0.3c0.6-0.6,0.9-0.9,1.8-1.5C170.8,34.2,171.7,26.3,172.3,18.5z M173.7,24c-0.9,3.8-0.9,7.6-0.3,9.3
		c2-0.6,4.4-0.9,6.1-2.6C177.5,28.4,175.8,26.3,173.7,24z"/>
	<path class="st1" d="M388.8,447.6c0.3-2.9-0.6-5.8-1.8-8.5c-2-5-2.6-9.9-4.7-15.5c0.3-0.3,0.9-0.9,1.2-0.9c0.6,0,0.9,0,1.2,0.3
		c4.7,2.6,9.3,5.3,14,7.9c1.5,0.9,2.9,1.8,4.4,2.6c1.2,0.6,2,1.2,3.5,0c0,0.3,0,0.6,0.3,0.9c-2.3,1.8-4.7,3.5-7,5.3l-0.3-0.3
		c0.3-0.6,0.6-1.2,1.2-2c-1.5-1.2-3.2-2-4.7-3.2c-1.5,0.9-2.6,1.8-3.5,2.6c-1.2,0.9-2.3,1.8-3.5,2.9c0.6,1.8,1.2,3.5,2,5.3
		c1.2-0.3,2-0.6,2.6-0.6l0.3,0.3C391.7,445.6,390.2,446.8,388.8,447.6L388.8,447.6z M393.7,433.6c-2.6-2-5-3.8-8.2-4.4
		c1.2,2.9,1.2,5.8,3.2,8.5C390.2,436.3,391.7,435.1,393.7,433.6z"/>
	<path class="st1" d="M341.8,473.6c0.6-2.9,0.6-5.8,0.3-8.8c-0.3-3.8-0.3-7.9-0.3-12c0-0.9,0-2,0-2.9c0-0.6,0.6-1.2,1.2-1.8
		c2.3,1.8,4.7,3.2,6.1,5.3c0.6,0.6,1.2,1.2,1.8,1.8c2,1.8,4.1,3.8,5.8,5.5c1.8,1.5,3.2,3.5,5.8,3.8c-2.6,1.2-5.3,2.3-8.5,3.5
		c0.3-0.6,0.3-0.9,0.6-1.2c0.3-0.3,0.6-0.6,0.9-1.5c-1.2-1.5-2.3-2.6-3.8-4.1c-2.9,1.2-5.5,2.3-7.9,3.5c0,2,0,3.8,0,5.8
		c1.2,0,2,0,3.5,0C345.6,472.7,343.5,473.3,341.8,473.6L341.8,473.6z M350,460.2c-2.3-1.8-3.5-4.1-6.1-5.3c-0.6,2.6-0.3,5.8,0.6,8.5
		C346.5,462.8,348.5,462.2,350,460.2z"/>
	<path class="st1" d="M34,309.6c-1.5-0.3-2.3-0.3-3.2-0.3c0-0.3,0-0.3,0-0.6c1.5-0.3,2.6-0.9,4.1-1.2c1.8,5.5,3.2,11.1,5,16.9
		c-0.9-0.3-1.8-0.3-2.6-0.6c-6.1-2-12.3-4.4-18.4-6.4c-0.9-0.3-1.5-0.9-2.6,0c0.3,3.8,2,7.3,3.2,11.4c1.2,0,2.3,0.3,3.5,0.3
		c0,0.3,0,0.3,0,0.6c-1.5,0.3-2.9,0.6-4.7,0.9c-1.8-5.8-3.5-12-5.3-18.4c4.4,0.6,8.2,2.6,12.3,3.8c3.8,0.9,7.3,3.2,11.7,4.1
		C36,316.1,34.6,313.1,34,309.6z"/>
	<path class="st1" d="M289.6,10.3c1.5,1.8,1.2,4.1,1.8,6.1c1.2,4.7,2.3,9.3,3.5,14c0.3,1.5,1.2,2.6,2,4.1c-2.3-0.3-5-0.9-7.6-1.5
		c1.8-2.3,0.9-4.7,0-7.3c-2.6-0.6-5.5-1.2-8.8-1.8c-1.2,1.8-2,3.5-2.9,5c0.9,0.6,1.5,1.2,2.3,2c-2.3-0.3-4.1-0.6-6.4-1.2
		c2.6-1.5,2.6-1.5,4.1-4.1c2.9-4.7,5.5-9.3,8.8-13.7C286.9,11.5,287.5,10,289.6,10.3z M286.9,16.1c-0.3,0-0.6-0.3-0.9-0.3
		c-1.5,2.3-2.9,4.7-4.4,7.3c2.3,0.9,4.4,1.2,7,1.5C288.1,21.4,287.5,18.8,286.9,16.1z"/>
	<path class="st1" d="M450.3,384.3c-1.5,2.3-2.3,3.8-3.2,5.3c-0.6-1.5-1.2-2.9-2-4.4c-2-3.2-4.1-6.1-6.4-9.3c-0.9-1.2-2-2.3-2.9-3.8
		c-0.9-0.9-1.5-2-2-3.2c0.3-0.9,0.6-1.5,0.9-1.8c6.1,0.9,11.7,1.8,17.5,2.9c2.3,0.6,4.7,1.2,7.3,0c-1.8,2.9-3.2,5.3-5,7.9h-0.3
		c0.3-0.9,0.3-1.8,0.6-2.9c-2-0.6-4.1-0.9-5.8-1.5c-1.8,2.3-3.2,4.7-5,7.3c0.3,2,2,3.2,3.5,4.7C448.3,385.5,448.9,385.2,450.3,384.3
		z M438.7,372.4c0,0.3-0.3,0.3-0.3,0.6c1.5,2.3,2.6,4.7,4.7,6.7c2-1.8,3.2-3.5,3.8-5.8C443.9,373.2,441.3,372.7,438.7,372.4z"/>
	<path class="st1" d="M43.9,126.7c-0.9,0-1.5-0.3-2.3-0.3c-4.4,2.6-5,3.8-4.4,8.5c2.3,2.3,4.4,2.3,6.4,0.3c1.8-1.5,2.9-3.2,5-5.5
		c1.5-1.2,3.5-0.9,5.8,0.6c2,1.5,2.9,3.2,3.2,5.8c0.3,5-2,8.8-6.1,11.4c-1.5-0.9-2.6-2-4.4-3.2c6.4,1.2,9.3-1.2,9-7.9
		c-0.3-0.3-0.3-0.9-0.6-1.2c-2.3-2.3-4.7-2.3-7,0.3c-0.9,1.2-1.8,2-2.6,3.2c-2.3,2.3-4.7,2.9-7.3,1.2s-4.4-4.4-3.2-7.6
		c0.3-0.9,0.6-2,1.2-2.6c1.2-1.8,2.6-3.5,4.1-5.3C41.9,125,42.7,125.8,43.9,126.7L43.9,126.7z"/>
	<path class="st1" d="M228.6,486.4c0.9,3.5,2.3,5.3,5.8,5.5c3.2,0.3,4.7-0.3,6.1-3.2c0-1.5,0-2.6,0-3.8c-1.5-2.3-4.1-2-6.1-2.6
		c-2.3-0.6-4.7-1.2-5.8-3.8c0-1.2,0-2.9,0-4.4c2-3.2,4.7-4.4,8.2-4.1c2.3,0.3,4.7-0.6,6.7,1.5c-0.3,1.2-0.6,2.6-1.2,4.7
		c-0.3-1.5-0.3-2.3-0.3-2.9c-3.2-2.9-5.5-3.2-9.3-0.6c-0.9,1.8-1.2,3.5,0.6,5.5c1.8,0.3,4.1,0.9,6.4,1.5c4.1,0.9,5.8,4.4,4.1,8.5
		c-1.5,3.5-5.5,5.5-9.6,5c-2-0.3-4.1-0.9-6.4-1.5C227.7,489.6,228,488.2,228.6,486.4z"/>
	<path class="st1" d="M128.8,58.7c3.2,1.5,6.1,1.2,9-0.6c1.8-1.2,2.6-3.8,1.8-5.5c-0.9-2-2.9-2.9-5.3-2c-2.6,0.9-5.3,2.3-8.5,1.5
		c-0.6-0.3-1.5-0.9-2-1.8c-2-2.3-2-5.8,0-8.5c2-2.3,5.3-4.1,9-5c0.3,0.6,0.6,1.5,0.9,2c0.3,0.6,0.3,1.2,0.9,2.3
		c-1.2-0.9-2-1.8-2.6-2c-5.8,0-9.3,5.3-5.5,9c3.5,1.2,6.7-0.9,9.9-2.3c2.6,0.3,4.7,1.8,5.5,4.4c1.2,3.2,0,7-3.2,9
		c-2.3,1.8-5,2.9-8.5,3.2C129.7,60.8,129.4,59.6,128.8,58.7L128.8,58.7z"/>
	<path class="st1" d="M184,461.3c3.2,0.9,6.4,1.5,9.3,2.3c1.8,0.6,3.8,0.9,5.8,1.5c-0.3,1.2-0.6,2.3-1.2,4.1c-0.3-1.5-0.3-2-0.6-2.9
		c-2.3-0.9-5-1.5-7.6-2.3c-2,2.3-2.3,5.3-3.2,7.9c2.3,1.8,4.7,2,7.6,1.8c-0.3,1.8-0.6,3.2-1.2,4.7c-0.3,0-0.3,0-0.6,0
		c0-0.9,0-1.5,0-2.3c-1.8-1.5-4.1-2-6.1-2.3c-1.8,2.9-2.6,7.6-2,9.9c2.3,0.6,5,1.2,7.6,1.8c0.6-0.9,1.2-1.5,1.5-2
		c0.3,0.3,0.3,0.3,0.3,0.6c-0.3,1.2-0.6,2-1.2,3.2c-5.3-1.5-10.2-3.2-15.8-5c0.9-0.3,1.5-0.3,2-0.6c1.8-1.8,2-4.4,2.6-6.7
		c0.9-3.2,1.8-6.7,2.6-10.2C184.8,463.4,184.5,462.5,184,461.3L184,461.3z"/>
	<path class="st1" d="M456.2,326.6c0-1.8,0.3-3.8,0.3-5.5c4.1-2.6,8.8-2.3,12.8-4.7c-2.6-3.5-5.8-5.8-8.5-9c0.3-0.6,0.6-0.9,0.9-1.5
		c2.9,3.2,5.3,6.1,8.2,8.8c2,2.3,8.2,3.8,11.4,3.2c-0.9,2.6-1.5,5-2.3,7.9c-0.3-1.2-0.3-2-0.6-2.9c-3.8-1.8-7.3-2.9-11.4-1.5
		c-1.5,0.6-3.2,1.2-5,1.5C460,323.6,457.6,324.8,456.2,326.6L456.2,326.6z"/>
	<path class="st1" d="M45.7,293c-1.8,0-3.2,0-4.7,0c-0.6-2.3-0.9-19-0.3-23c2.3-1.2,2.3-1.2,4.7-1.2C46,271.1,46.2,288.9,45.7,293z"
		/>
	<path class="st1" d="M457.9,293c-1.8,0-3.2,0-4.4,0c-0.9-2.6-0.9-20.4,0-23.3c0.9-0.3,1.5-0.6,2.3-0.9c0.6,0,1.2,0,1.8,0
		C458.2,271.1,458.5,284.8,457.9,293z"/>
	<path class="st1" d="M178.1,460.5c-0.6,1.5-1.2,2.6-2.3,4.7c0-1.8,0-2.9-0.3-3.8c-1.8-3.2-5-3.5-7.6-4.7c-1.5,0.3-2.9,0.3-4.4,0.6
		c-5,2.9-6.4,7.6-5.8,12.8c0.3,2.9,4.4,6.7,8.2,7.3c1.2,0.3,2.6,0.6,4.7,0.9c-2.6,0.6-4.7,0.6-6.4,0c-2.9-0.9-5.8-2.6-7.9-5
		c-2.9-2.9-2.9-6.7-2-10.2c1.2-5.5,5.3-8.5,11.1-8.2C170.2,455.5,174.3,457.3,178.1,460.5z"/>
	<path class="st1" d="M59.7,102.8c-0.9,0-1.8,0-2.9,0c-1.2,1.2-2.6,2.3-3.8,3.8c-2.9,2.9-2.6,8.5,0,11.4c3.5,3.8,8.5,5,12.5,3.5
		c2-0.9,3.5-2,4.4-3.8c0.9-1.8,1.8-3.5,2.6-5.5c0.3,0.6,0.6,1.2,0.6,1.5c-1.5,5.3-4.4,9.6-9.9,11.7c-2.3,0.9-4.7,0.9-7,0
		c-8.5-3.2-9.9-10.5-5.8-17.5c1.5-2.9,4.1-5,6.4-7.9C57.9,101,58.8,101.9,59.7,102.8L59.7,102.8z"/>
	<path class="st1" d="M404.5,69.5c0-4.4-3.5-8.5-7.6-9.3c-0.9-0.3-2-0.3-2.9,0c-4.1,0.9-8.5,6.4-8.5,9.9c-0.3,4.4,1.5,7.6,5.3,9.9
		c1.2,0.6,2.3,1.5,3.5,2.6c-0.9-0.3-1.8,0-2.3-0.6c-2-1.2-4.4-2.3-6.1-4.1c-4.1-3.8-5.3-10.2-1.5-15.5c3.2-4.7,9.9-5.8,14.3-3.2
		c3.5,2,6.7,4.4,8.8,8.5C406.3,68.1,405.4,68.9,404.5,69.5L404.5,69.5z"/>
	<path class="st1" d="M152.7,50.6c0.3-0.6,0.9-0.9,1.5-1.8c-1.5-6.4-5.5-11.7-7.6-18.1c-2.6,0.6-4.7,1.5-6.4,3.2
		c0.3,0.9,0.3,1.8,0.6,3.2c-1.5-1.2-1.8-2.6-2.6-4.1c5.8-3.5,12.5-5.3,18.7-8.8c0.3,0.9,0.6,1.5,0.9,2s0.6,1.5,0.3,2.3
		c-0.6-0.6-1.2-1.5-2-2.3c-1.8,0.9-3.8,1.8-5.8,2.6c0.3,1.2,0.6,2.3,0.9,3.2c2,4.4,4.1,8.8,6.1,13.1c0.6,0.9,1.5,1.5,2,2.3
		C157.4,48.2,155.4,50.3,152.7,50.6L152.7,50.6z"/>
	<path class="st1" d="M93.5,62.8c2-2,4.1-4.1,6.4-6.1l0.3,0.3c-0.3,0.6-0.9,1.5-1.2,2.3c0.9,2,2,4.1,4.4,5.8c0.6-2,1.2-3.8,2-5.8
		c0.9,2.9-0.9,4.7-1.2,7.3c1.8,3.2,4.1,5.8,6.7,8.8c2.3-2,5-3.2,6.7-5.5c-0.3-1.2-0.6-2.3-1.2-3.5c0.6,0.3,0.9,0.6,0.9,0.6
		c0.6,1.2,1.2,2,1.8,3.5c-4.1,3.2-8.2,6.1-12.3,9.3c-0.6-2.9-2.3-5-3.8-7.3c-0.6,0-1.5,0-2-0.3l0,0c0-0.9,0-1.5-0.3-2.3
		c-2-2.3-3.8-5-5.8-7.3C95,62.5,94.4,62.5,93.5,62.8L93.5,62.8z"/>
	<path class="st1" d="M420.9,420.5c-1.5,2-3.2,3.5-5.5,4.7l0,0c0-0.6,0-0.9-0.3-1.2c-2.6-2.9-4.4-6.4-7.6-8.8
		c-1.2-0.9-1.8-2-2.6-2.9c-0.9-0.9-1.8-1.8-2.6-2.9c-2.3,1.2-3.5,3.2-4.7,5c0.6,0.9,0.9,1.8,1.5,2.6c-0.3,0-0.6,0-0.6,0
		c-0.9-0.9-2-1.8-3.2-2.9c5-5,9.9-9.6,14.9-14.3c0.9,1.2,1.8,2,2.6,2.9l-0.3,0.3c-0.9-0.3-1.5-0.6-2.3-0.9c-2,0.9-3.5,2.3-4.7,4.7
		c1.5,1.8,2.9,3.5,4.4,5c2,2.3,4.4,4.7,6.4,7C417.6,420.2,419.1,420.8,420.9,420.5L420.9,420.5z"/>
	<path class="st1" d="M304.2,36.6c0.9-0.3,1.8-0.3,2.6-0.6c2.9-5.8,4.1-12.3,5.8-18.7c-2.3-1.2-4.1-1.8-6.7-1.5
		c-0.3,0.6-0.9,1.2-1.5,2c0-0.6-0.3-0.9,0-1.2c0.3-0.9,0.6-1.8,1.2-2.9c6.4,2,12.8,3.8,19.8,5.8c-0.3,0.9-0.9,2-1.2,3.2
		c-0.3-1.2-0.6-1.8-0.9-2.6c-1.8-0.6-3.8-1.5-5.5-2c-1.8,1.2-1.8,2.9-2,4.4c-1.2,3.8-2,7.9-3.2,11.7c-0.6,1.8-0.6,2.9,1.5,4.7
		C310,38,307.4,37.4,304.2,36.6z"/>
	<path class="st1" d="M133.5,464c1.2,0,1.8-0.6,2.3-1.5c2-2.9,3.5-5.8,2.9-9.6c-0.3-2.3-0.6-5-0.9-7.3c-0.3-1.2-0.9-2.3-1.5-3.8
		c1.5,0.3,2.9,0.9,4.7,1.2c2.3,4.1,0.3,8.8,1.5,12.8c1.5,0.6,2.3-0.3,3.2-1.2c2-1.5,4.1-2.9,6.1-4.1c0.9-0.6,2-0.9,3.2,0
		c-0.9,0.6-1.5,0.9-2,1.2c-3.2,1.8-6.1,3.8-9.3,5.5c-1.2,0.6-1.8,1.5-2.3,2.6c-0.9,2-1.8,3.8-2.3,5.8c0.6,0.6,1.2,1.2,1.8,1.8
		l-0.3,0.3C138.4,466.6,136.1,465.4,133.5,464L133.5,464z"/>
	<path class="st1" d="M360.2,34.8c2,0.9,4.4,1.8,7,2.9c-1.5,0.3-2,0.3-2.6,0.6c-2.3,2.9-8.5,13.4-9.6,16.9c2,2,5,2.6,7.6,3.8
		c0.9-0.6,1.8-1.5,2.9-2l0.3,0.3c-0.9,1.2-1.8,2.3-2.9,3.8c-4.4-2.3-8.8-4.7-13.1-7.3c2.3-2.6,4.1-5.5,5.8-8.5c0.9-1.8,2-3.2,2.9-5
		C359.3,38.9,360.8,37.1,360.2,34.8L360.2,34.8z"/>
	<path class="st1" d="M380.6,449.7c0.6,0.6,1.2,1.5,2,2.3c-4.7,2.9-8.8,5.5-13.4,8.5c0-2.6-1.5-4.7-2.6-6.4c-2.3-3.5-4.7-7-7-10.5
		c-0.3-0.6-0.9-0.9-1.2-1.5c-0.9,0.3-1.8,0.3-3.2,0.6c3.2-2,5.8-4.1,9-6.1c-0.6,1.2-1.2,2-1.8,2.9c2.9,5.8,7,10.8,9.9,16.6
		c3.5-0.6,5.3-3.5,7.9-5C380.6,450.8,380.6,450.3,380.6,449.7L380.6,449.7z"/>
	<path class="st1" d="M385.6,49.7c-0.9,0-1.5,0-2.3,0c-4.4,5.3-7,11.1-10.8,16.3c0.6,0.6,0.9,1.2,1.2,1.8c-0.3,0-0.3,0.3-0.6,0.3
		c-2.3-1.5-4.4-2.6-6.7-4.1c2.9,0,2.9,0,4.1-2c2.9-4.7,6.1-9.6,9-14.3c-0.9-1.2-1.5-1.8-2-2.6C380,46.5,383.2,47.3,385.6,49.7
		L385.6,49.7z"/>
	<path class="st1" d="M77.2,109.5c0-0.6,0.3-1.2,0.6-2.6c-1.2-0.9-2.6-2.3-4.4-3.5c-3.2-2.6-6.1-5.3-9.3-7.9
		c-0.9-0.9-1.8-0.9-2.6-0.9l0,0c0.6-2.3,2.3-3.5,4.1-4.7l0,0c0.6,0.9,0.9,2,1.5,2.6c4.1,3.5,7.9,7,12,10.2c0.9,0.6,2,1.2,2.9,1.5
		l0,0C81,106.6,79.2,108.3,77.2,109.5L77.2,109.5z"/>
	<path class="st1" d="M283.7,468.6c1.2,6.7,1.5,13.4,3.8,19.8c1.2,0.3,2,0.3,3.2,0.3c-3.2,0.6-6.1,1.2-9,1.8
		c0.3-0.9,0.9-1.8,0.9-2.3c0.3-0.9,0-1.8,0-2.6c-0.6-4.4-1.5-8.8-2.3-13.1c-0.3-1.5-1.2-2.6-1.8-3.8c2.3-0.6,5-0.9,8.2-1.8
		C285.5,467.5,284.6,468.1,283.7,468.6z"/>
	<path class="st1" d="M415.3,106.3c0.9,0,1.8,0,2.9,0c4.7-4.1,9.6-8.2,14.3-12.5c-0.3-0.9-0.3-1.5-0.6-2c0.6-0.6,3.2,2.6,4.7,5.5
		l0,0c-0.9,0.3-1.8,0-2.3,0.6c-4.4,3.5-8.5,7.3-12.8,10.8c-0.3,0.3-0.6,0.9-0.9,1.5c0,0.9,0.3,1.5,0.3,2.3l0,0
		C419.1,110.4,417.1,108.3,415.3,106.3L415.3,106.3z"/>
	<path class="st1" d="M33.1,130.2c-0.6-2-0.9-4.1-1.5-6.1c0.3-0.3,0.6-0.6,1.2-0.9c0.3,0.3,0.6,0.6,0.6,0.9c0,2,0,4.4,0,6.4
		C33.4,130.2,33.4,130.2,33.1,130.2z"/>
	<path class="st1" d="M75.4,74.5c0-2-1.2-4.7,1.2-6.7C78,70.7,76,72.4,75.4,74.5z"/>
	<path class="st1" d="M101.7,72.1c0,0.6-0.3,1.5-0.3,2C100.5,73.3,100.8,72.7,101.7,72.1L101.7,72.1z"/>
	<path class="st1" d="M34.3,365.4c-0.6-0.6-0.9-0.9-1.5-1.5c0.3,0,0.3-0.3,0.6-0.3C33.7,364.2,34,364.8,34.3,365.4L34.3,365.4z"/>
	<path class="st1" d="M404.5,69.5c-0.3,0.6-0.3,0.9-0.6,1.5c-0.3,0-0.3-0.3-0.6-0.3C403.6,70.1,404.2,69.8,404.5,69.5L404.5,69.5z"
		/>
	<path class="st1" d="M111,450.5c0.6,0,0.9,0.3,1.5,0.3c0,0.3-0.3,0.3-0.3,0.6C111.9,451.1,111.6,450.8,111,450.5L111,450.5z"/>
	<path class="st1" d="M417.9,77.1c0.3,0.3,0.9,0.3,1.2,0.6c0,0.3-0.3,0.3-0.3,0.6C418.5,77.7,418.2,77.4,417.9,77.1L417.9,77.1z"/>
	<path class="st1" d="M61.4,94.6c-0.3,0.3-0.6,0.6-0.9,1.2c0-0.3-0.3-0.3-0.3-0.6C60.8,94.9,61.1,94.9,61.4,94.6L61.4,94.6z"/>
	<path class="st1" d="M71.6,417c0.3,0.3,0.9,0.6,1.2,0.9l-0.3,0.3C72.2,417.9,71.9,417.6,71.6,417L71.6,417z"/>
	<path class="st1" d="M360.2,34.8C359.9,34.8,359.6,34.5,360.2,34.8C359.6,34.5,359.9,34.5,360.2,34.8L360.2,34.8z"/>
	<path class="st1" d="M117.4,428.7c-0.3,0-0.6,0-0.9-0.3v-0.3c0.3,0,0.6,0,0.6,0C117.1,428.4,117.1,428.4,117.4,428.7L117.4,428.7z"
		/>
	<path class="st1" d="M93.5,62.5c-0.3,0.3-0.6,0.3-0.9,0.6v-0.3C92.9,62.8,93.2,62.8,93.5,62.5L93.5,62.5z"/>
	<path class="st1" d="M481.8,316.1c0,0.3,0,0.6,0,0.9c0,0-0.3-0.3,0-0.3C481.5,316.3,481.5,316.3,481.8,316.1
		C481.5,316.1,481.8,316.1,481.8,316.1z"/>
	<path class="st1" d="M128.8,58.4c-0.3-0.3-0.6-0.6-0.6-0.9l0.3-0.3C128.8,57.9,128.8,58.1,128.8,58.4L128.8,58.4z"/>
	<path class="st1" d="M11.8,192.6C11.8,192.9,11.8,193.2,11.8,192.6C11.5,193.2,11.8,192.9,11.8,192.6L11.8,192.6z"/>
	<path class="st1" d="M458.8,184.5c-0.3-0.3-0.3-0.6-0.6-0.9c0,0,0.3,0,0.3-0.3C458.8,183.6,458.8,184.2,458.8,184.5L458.8,184.5z"
		/>
	<path class="st1" d="M430.2,410.3c0,0.3,0,0.6-0.3,1.2l-0.3-0.3C429.9,410.9,430.2,410.6,430.2,410.3L430.2,410.3z"/>
	<path class="st1" d="M454.1,330.6c0,0.3,0,0.9-0.3,1.2c0,0-0.3,0-0.3-0.3C453.8,331.2,453.8,330.9,454.1,330.6L454.1,330.6z"/>
	<path class="st1" d="M184,461.3c-0.3,0-0.9,0-1.2,0c0,0,0-0.3,0.3-0.3C183.4,461.1,183.7,461.1,184,461.3L184,461.3z"/>
	<path class="st1" d="M307.7,462.5c-0.3,0.3-0.6,0.3-0.9,0.6c0,0,0-0.3-0.3-0.3C307.1,462.8,307.4,462.8,307.7,462.5L307.7,462.5z"
		/>
	<path class="st1" d="M133.8,464C133.5,464,133.2,464,133.8,464C133.2,463.7,133.5,464,133.8,464L133.8,464z"/>
	<path class="st1" d="M44.5,383.2c0.3,0.3,0.3,0.6,0.6,0.9c0,0-0.3,0-0.3,0.3C44.8,383.7,44.5,383.4,44.5,383.2L44.5,383.2z"/>
	<path class="st1" d="M380.6,449.7c-0.3-0.3-0.3-0.6-0.6-0.9c0,0,0.3,0,0.3-0.3C380.6,449.1,380.6,449.4,380.6,449.7L380.6,449.7z"
		/>
	<path class="st1" d="M415.3,106.3c-0.3,0-0.3-0.3-0.6-0.3C415,106,415,106.3,415.3,106.3L415.3,106.3z"/>
	<path class="st1" d="M81.8,104.2c0.3-0.3,0.6-0.6,0.6-0.6l0,0C82.4,103.7,82.1,103.9,81.8,104.2L81.8,104.2z"/>
	<path class="st1" d="M414.7,426c0.3-0.3,0.6-0.6,0.6-0.6l0,0C415,425.5,414.7,425.7,414.7,426L414.7,426z"/>
	<path class="st1" d="M414.4,425.7c0,0.3,0,0.3-0.3,0.3C414.4,426.3,414.4,426,414.4,425.7L414.4,425.7z"/>
	<path class="st1" d="M402.2,92c0.3,0,0.3,0.3,0.6,0.3C402.8,92,402.5,92,402.2,92L402.2,92z"/>
	<path class="st1" d="M436.9,98.1c0,0,0.3,0,0.3,0.3C437.2,98.1,437.2,98.1,436.9,98.1L436.9,98.1z"/>
	<path class="st1" d="M388.8,447.6C388.8,447.9,388.5,447.9,388.8,447.6C388.5,447.9,388.8,447.9,388.8,447.6L388.8,447.6z"/>
	<path class="st1" d="M82.7,103.7c0-0.3,0-0.3,0.3-0.6C82.7,103.1,82.7,103.4,82.7,103.7L82.7,103.7z"/>
	<path class="st1" d="M97,410.9C96.7,410.9,96.7,410.9,97,410.9C96.7,410.6,96.7,410.9,97,410.9L97,410.9z"/>
	<path class="st1" d="M434.3,405.6c0-0.3,0-0.3,0.3-0.6C434.6,405.3,434.3,405.3,434.3,405.6L434.3,405.6z"/>
	<path class="st1" d="M420.6,112.4C420.9,112.4,420.9,112.4,420.6,112.4C420.9,112.4,420.9,112.4,420.6,112.4L420.6,112.4z"/>
	<polygon class="st1" points="160.9,46.8 161.2,46.5 161.2,46.8 	"/>
	<path class="st1" d="M59.4,102.8C59.7,102.8,59.7,103.1,59.4,102.8C59.7,103.1,59.7,103.1,59.4,102.8L59.4,102.8z"/>
	<path class="st1" d="M385.3,49.7c0.3,0,0.3,0.3,0.6,0.3C385.8,50,385.6,49.7,385.3,49.7L385.3,49.7z"/>
	<path class="st1" d="M152.7,50.3C152.4,50.6,152.4,50.6,152.7,50.3C152.4,50.6,152.7,50.6,152.7,50.3L152.7,50.3z"/>
	<path class="st1" d="M39.2,177.8C39.2,177.5,39.2,177.5,39.2,177.8C39.2,177.5,39.2,177.5,39.2,177.8L39.2,177.8z"/>
	<path class="st1" d="M43.9,126.7L43.9,126.7L43.9,126.7L43.9,126.7z"/>
	<path class="st1" d="M442.4,394.8C442.7,394.5,442.7,394.5,442.4,394.8C442.7,394.5,442.4,394.5,442.4,394.8L442.4,394.8z"/>
	<path class="st1" d="M77.2,109.5C77.2,109.8,76.9,109.8,77.2,109.5C76.9,109.8,77.2,109.8,77.2,109.5L77.2,109.5z"/>
	<path class="st1" d="M396.9,86.4C396.9,86.4,396.6,86.2,396.9,86.4C396.6,86.2,396.9,86.4,396.9,86.4L396.9,86.4z"/>
	<path class="st1" d="M420.9,420.5C420.9,420.5,420.9,420.2,420.9,420.5C421.1,420.2,420.9,420.5,420.9,420.5L420.9,420.5z"/>
	<path class="st1" d="M30.2,358.1C30.2,358.1,30.5,358.1,30.2,358.1C30.5,358.1,30.5,358.1,30.2,358.1L30.2,358.1z"/>
	<path class="st1" d="M194.7,472.7C194.7,472.7,194.5,472.7,194.7,472.7c-0.3,0-0.3,0-0.3,0S194.5,472.4,194.7,472.7
		C194.5,472.4,194.7,472.4,194.7,472.7z"/>
	<path class="st1" d="M341.8,473.6C341.8,473.6,341.5,473.9,341.8,473.6C341.5,473.6,341.8,473.6,341.8,473.6L341.8,473.6z"/>
	<path class="st1" d="M437.2,98.1c-0.3-0.3-0.6-0.6-0.6-0.6l0,0C436.6,97.5,436.9,97.8,437.2,98.1L437.2,98.1z"/>
	<path class="st1" d="M65.8,89.9l0.3-0.3C65.8,89.7,65.8,89.7,65.8,89.9L65.8,89.9z"/>
	<path class="st1" d="M40.7,240.8c2,0.6,3.5,0.9,5,1.2c0.6,2.6,0.6,12.5,0.3,17.2c-1.5,0.3-3.2,0.6-5.3,1.2
		C40.4,253.6,40.7,247.2,40.7,240.8z"/>
	<path class="st1" d="M453.2,240.8c1.8,0.6,3.2,0.9,4.7,1.5c0,5.5,0,11.1,0,16.6c-1.5,0.6-2.6,1.8-4.4,1.2
		C452.7,257.4,452.7,246.9,453.2,240.8z"/>
</g>
<g>
</g>
<g>
</g>
<g>
</g>
<g>
</g>
<g>
</g>
<g>
</g>
</svg>
