<?xml version="1.0" encoding="utf-8"?>
<!-- Generator: Adobe Illustrator 25.0.1, SVG Export Plug-In . SVG Version: 6.00 Build 0)  -->
<svg version="1.1" id="Layer_1" xmlns="http://www.w3.org/2000/svg" xmlns:xlink="http://www.w3.org/1999/xlink" x="0px" y="0px"
	 viewBox="0 0 174.8 175.7" style="enable-background:new 0 0 174.8 175.7;" xml:space="preserve">
<style type="text/css">
	.st0{fill:#FFFFFF;}
</style>
<g>
	<path class="st0" d="M3.6,87c0.2-0.2,0.4-0.6,0.6-0.8c0.3-0.3,0.5-0.7,0.8-1c0.5-0.7,1-1.4,1.5-2.1c3.6-5.1,7.8-9.6,12.4-13.8
		c5-4.5,10.7-8.2,16.9-11c4.6-2.1,9.4-3.7,14.3-4.6c2.8-0.5,5.7-0.9,8.5-1.2c2.3-0.3,4.7-0.5,7-0.5c5.1,0.2,10.2,0.5,15.3,1.3
		c8.4,1.4,16.5,3.7,24.4,6.9c5.4,2.3,10.8,4.6,16,7.2c8,4,15.5,8.7,22.8,13.9c0.4,0.2,0.7,0.5,1.2,0.8c2.5-1.5,5-3,7.5-4.6
		c6-3.9,12-7.8,18-11.7c0.9-0.6,1.9-1.3,2.8-1.9c0.7-0.5,1.1-0.2,1.1,0.5c0,4.5,0,9,0,13.5c0,0.4-0.6,1-1,1.3
		c-5.6,3.6-11.2,7.2-16.8,10.8c-0.1,0.1-0.2,0.2-0.5,0.4c2,1.6,4,3.1,6,4.6c3.4,2.6,6.6,5.5,10.1,7.9c2,1.4,2.3,3,2.2,5.2
		c-0.1,3.1-0.1,6.2-0.1,9.2c0,0.5,0,1,0,1.5c0,0.5,0.1,1-0.1,1.5c-0.1,0.2-0.1,0.6-0.4,0.7c-0.3,0.1-0.7-0.3-0.9-0.5
		c-0.8-0.6-1.5-1.3-2.3-1.9c-1.1-1-2.3-2-3.4-3c-1.6-1.4-3.1-2.7-4.7-4c-5.8-4.6-11.7-9.1-17.5-13.7c-0.5-0.4-1-0.6-1.7-0.2
		c-2.5,1.4-5,2.9-7.6,4.2c-4,2.1-8.1,4.2-12.2,6.1c-6.1,2.7-12.2,5.4-18.5,7.6c-6.1,2.2-12.4,3.9-18.7,5.5c-3,0.8-6.1,1.1-9.1,1.5
		c-3.1,0.4-6.1,0.4-9.2,0.8c-4.4,0.5-8.7,0-13.1-0.5c-5-0.5-9.9-1.6-14.6-3.4c-6.6-2.4-12.8-5.6-18.1-10.1c-2.9-2.4-5.8-5-8.4-7.7
		c-0.3-0.4-0.7-0.7-1-1.1c-0.5-0.6-1.1-1.2-1.6-1.8c-0.5-0.6-1-1.2-1.5-1.9c-0.5-0.6-1-1.3-1.5-1.9c-0.5-0.6-0.9-1.3-1.4-2
		c-0.5-0.7-0.9-1.3-1.4-2c-0.4-0.7-0.9-1.3-1.3-2c-0.1-0.2-0.2-0.3-0.3-0.5c-0.1-0.1-0.2-0.3-0.4-0.4c-0.2-0.3-0.5-0.5-0.8-0.7
		c0.2-0.1,0.4-0.3,0.6-0.4C3.5,87.1,3.6,87.1,3.6,87z M133,89.3c-0.1-0.1-0.2-0.2-0.4-0.3c-7.1-4.6-14.4-9-22.2-12.5
		c-4.8-2.2-9.6-4.3-14.6-6.1c-4.6-1.6-9.3-3-14.1-3.9c-4.8-0.9-9.6-1.4-14.5-1.7c-4.7-0.3-9.3,0.1-13.9,1.2c-3.8,0.9-7.6,2-11.2,3.5
		c-5.3,2.2-10.2,5.1-14.4,9c-2.9,2.8-5.7,5.8-8.5,8.8c-0.2,0.2-0.1,0.8,0,1c0.9,1.3,1.9,2.5,3,3.7c3,3.6,6.5,6.7,10.3,9.4
		c4.9,3.5,10.3,6,16.1,7.5c4.3,1.2,8.8,1.9,13.2,2c5.5,0.2,11-0.1,16.4-1.2c5.1-1,10.2-2,15.2-3.5c5.4-1.6,10.6-3.7,15.8-5.7
		C117.5,97.4,125.3,93.4,133,89.3z"/>
	<path class="st0" d="M83,175.7c-0.1-0.4-0.2-0.8-0.2-1.3c0-16.7,0-33.5,0-50.2c0-0.7,0-1.2,1-1.4c3.6-0.8,7.1-1.7,10.7-2.5
		c1-0.2,1.3,0.3,1.3,1.3c0,11.9,0,23.9,0,35.8c0,5.6,0,11.3,0,16.9c0,0.5-0.1,0.9-0.2,1.4C91.3,175.7,87.1,175.7,83,175.7z"/>
	<path class="st0" d="M95.7,37.2c0.6,0,1.1,0,1.6,0c14.1,0,28.3,0,42.4,0c1.6,0,1.6,0,1.6,1.6c0,3.3,0,6.6,0,9.9
		c0,1.1-0.3,1.4-1.4,1.4c-14.2,0-28.4,0-42.5,0c-0.5,0-1,0-1.6,0c0,1.4,0,2.7,0,4.1c0,1.6-0.1,1.6-1.5,1.2
		c-3.4-0.9-6.9-1.8-10.3-2.6c-1-0.2-1.2-0.6-1.1-1.4c0-0.4,0-0.8,0-1.3c-0.5,0-1,0-1.5,0c-14.2,0-28.4,0-42.5,0
		c-1.2,0-1.6-0.3-1.6-1.5c0.1-3.4,0.1-6.7,0-10.1c0-1.2,0.4-1.4,1.4-1.4c14.2,0,28.4,0,42.5,0c0.5,0,0.9,0,1.6,0c0-0.5,0-1,0-1.5
		c0-11.4,0-22.8,0-34.3c0-1.1,0.2-1.5,1.4-1.4c3.4,0.1,6.8,0.1,10.2,0c1.1,0,1.4,0.3,1.4,1.4c0,11.5,0,23,0,34.5
		C95.7,36.3,95.7,36.6,95.7,37.2z"/>
	<path class="st0" d="M82.7,87.9c0-6.2,0-12.4,0-18.6c0-1.2,0.4-1.5,1.4-1.2c3.6,1,7.1,2.1,10.7,3c0.7,0.2,0.8,0.6,0.8,1.2
		c0,10.4,0,20.8,0,31.1c0,0.7-0.2,1.1-1,1.3c-3.4,0.9-6.8,1.9-10.3,2.8c-1.3,0.4-1.7,0-1.7-1.4C82.7,100.1,82.7,94,82.7,87.9z"/>
</g>
<g>
</g>
<g>
</g>
<g>
</g>
<g>
</g>
<g>
</g>
<g>
</g>
</svg>
